<svg xmlns="http://www.w3.org/2000/svg" width="1024" height="1024" viewBox="0 0 1024 1024">
  <defs>
    <linearGradient id="bg" x1="0" y1="0" x2="1" y2="1">
      <stop offset="0" stop-color="#1b5e8f"/>
      <stop offset="1" stop-color="#0d3352"/>
    </linearGradient>
    <linearGradient id="wand" x1="0" y1="1" x2="1" y2="0">
      <stop offset="0" stop-color="#3d2b63"/>
      <stop offset="1" stop-color="#5a3f8f"/>
    </linearGradient>
    <radialGradient id="glow" cx="0.5" cy="0.5" r="0.5">
      <stop offset="0" stop-color="#fff8d9" stop-opacity="0.95"/>
      <stop offset="0.45" stop-color="#ffe27a" stop-opacity="0.55"/>
      <stop offset="1" stop-color="#ffe27a" stop-opacity="0"/>
    </radialGradient>
  </defs>
  <g transform="translate(512,512) scale(0.68) translate(-512,-512)">

  <!-- צל המפה -->
  <ellipse cx="512" cy="828" rx="330" ry="42" fill="#000" opacity="0.28"/>

  <!-- מפה מקופלת: שלושה פאנלים -->
  <g stroke="#0d3352" stroke-width="10" stroke-linejoin="round">
    <polygon points="168,340 396,308 396,776 168,812" fill="#f7f3e6"/>
    <polygon points="396,308 628,340 628,812 396,776" fill="#e7e0cd"/>
    <polygon points="628,340 856,308 856,776 628,812" fill="#f7f3e6"/>
  </g>

  <!-- תוכן המפה -->
  <g>
    <!-- פארק ירוק -->
    <path d="M 190 640 Q 260 560 370 610 L 370 750 Q 260 790 190 760 Z" fill="#9ccf7f"/>
    <!-- אגם -->
    <path d="M 700 380 Q 800 360 830 430 Q 840 500 760 510 Q 680 505 680 440 Z" fill="#8fc6e8"/>
    <!-- דרך ראשית (כתומה) חוצה את הקיפולים -->
    <path d="M 168 470 Q 320 430 396 480 Q 500 545 628 500 Q 750 465 856 520"
          fill="none" stroke="#f2a33c" stroke-width="34" stroke-linecap="round"/>
    <path d="M 168 470 Q 320 430 396 480 Q 500 545 628 500 Q 750 465 856 520"
          fill="none" stroke="#fff" stroke-width="6" stroke-dasharray="26 22" opacity="0.85"/>
    <!-- רחובות משניים -->
    <path d="M 300 320 L 322 700" stroke="#b9b2a0" stroke-width="18" fill="none"/>
    <path d="M 508 330 L 508 795" stroke="#b9b2a0" stroke-width="18" fill="none"/>
    <path d="M 730 330 L 748 610" stroke="#b9b2a0" stroke-width="18" fill="none"/>
    <path d="M 200 600 L 620 585" stroke="#b9b2a0" stroke-width="16" fill="none"/>
    <!-- נקודות-צומת (הגלאי!) -->
    <circle cx="311" cy="452" r="16" fill="#18a99c" stroke="#fff" stroke-width="6"/>
    <circle cx="508" cy="521" r="16" fill="#18a99c" stroke="#fff" stroke-width="6"/>
    <circle cx="613" cy="590" r="16" fill="#18a99c" stroke="#fff" stroke-width="6"/>
  </g>

  <!-- שרביט קסמים — גדול, חוצה את האייקון -->
  <g>
    <line x1="252" y1="850" x2="632" y2="440" stroke="#241a3d" stroke-width="78" stroke-linecap="round"/>
    <line x1="252" y1="850" x2="632" y2="440" stroke="url(#wand)" stroke-width="58" stroke-linecap="round"/>
    <!-- קצה השרביט -->
    <line x1="632" y1="440" x2="716" y2="350" stroke="#f6e7b8" stroke-width="58" stroke-linecap="round"/>
  </g>

  <!-- התפרצות הקסם בקצה -->
  <circle cx="752" cy="312" r="190" fill="url(#glow)"/>
  <g fill="#ffd54f">
    <!-- כוכב ראשי גדול על הקצה -->
    <path d="M 752 178 Q 772 288 886 312 Q 772 336 752 446 Q 732 336 618 312 Q 732 288 752 178 Z"/>
    <!-- כוכבים משניים סביב -->
    <path d="M 900 420 Q 909 456 945 465 Q 909 474 900 510 Q 891 474 855 465 Q 891 456 900 420 Z"/>
    <path d="M 640 190 Q 646 216 672 222 Q 646 228 640 254 Q 634 228 608 222 Q 634 216 640 190 Z"/>
  </g>
  <g fill="#e6c8ff">
    <path d="M 880 250 Q 885 272 907 277 Q 885 282 880 304 Q 875 282 853 277 Q 875 272 880 250 Z"/>
    <circle cx="672" cy="420" r="11"/>
    <circle cx="845" cy="170" r="9"/>
    <circle cx="940" cy="345" r="8"/>
  </g>
</g>
</svg>
